<?xml version="1.0" encoding="utf-8"?>
<!DOCTYPE svg PUBLIC "-//W3C//DTD SVG 1.1//EN" "http://www.w3.org/Graphics/SVG/1.1/DTD/svg11.dtd">
<svg version="1.1" id="Layer_1" xmlns="http://www.w3.org/2000/svg" xmlns:xlink="http://www.w3.org/1999/xlink" x="0px" y="0px"
width="594px" height="594px" viewBox="0 0 594 594" enable-background="new 0 0 594 594" xml:space="preserve">
<rect x="0" y="0" width="594" height="594" fill="rgb(243,244,246)" /><g transform="translate(36,36)"><g transform="translate(144,0) scale(0.036,0.036)"><g transform="" style="fill: rgb(55, 65, 81);">
<g>
	<path d="M0,500h500V0C223.861,0.001,0,223.854,0,500z"/>
</g>
</g></g><g transform="translate(162,0) scale(0.036,0.036)"><g transform="" style="fill: rgb(55, 65, 81);">
<path d="M250,500c-58.271,0-250,0-250,0s0-170.207,0-250C0,187.676,0,0,0,0s174.261,0,250,0c138.064,0,250,111.929,250,250
	C500,388.064,388.064,500,250,500z"/>
</g></g><g transform="translate(198,0) scale(0.036,0.036)"><g transform="" style="fill: rgb(55, 65, 81);">
<path d="M250,0c58.27,0,250,0,250,0s0,170.182,0,250c0,62.305,0,250,0,250s-174.219,0-250,0
	C111.881,500,0,388.021,0,250C0,111.963,111.881,0,250,0z"/>
</g></g><g transform="translate(216,0) scale(0.18,0.18)"><g transform="" style="fill: rgb(55, 65, 81);">
<rect width="100" height="100"/>
</g></g><g transform="translate(234,0) scale(0.036,0.036)"><g transform="" style="fill: rgb(55, 65, 81);">
<g>
	<path d="M0,0v500h500C500,223.853,276.142,0,0,0z"/>
</g>
</g></g><g transform="translate(270,0) scale(0.036,0.036)"><g transform="" style="fill: rgb(55, 65, 81);">
<path d="M250,0c138.077,0,250,111.93,250,250c0,138.077-111.923,250-250,250C111.93,500,0,388.077,0,250C0,111.93,111.93,0,250,0z"
	/>
</g></g><g transform="translate(306,0) scale(0.036,0.036)"><g transform="" style="fill: rgb(55, 65, 81);">
<path d="M250,0c58.27,0,250,0,250,0s0,170.182,0,250c0,62.305,0,250,0,250s-174.219,0-250,0
	C111.881,500,0,388.021,0,250C0,111.963,111.881,0,250,0z"/>
</g></g><g transform="translate(324,0) scale(0.18,0.18)"><g transform="" style="fill: rgb(55, 65, 81);">
<rect width="100" height="100"/>
</g></g><g transform="translate(342,0) scale(0.18,0.18)"><g transform="" style="fill: rgb(55, 65, 81);">
<rect width="100" height="100"/>
</g></g><g transform="translate(360,0) scale(0.036,0.036)"><g transform="" style="fill: rgb(55, 65, 81);">
<path d="M250,500c-58.271,0-250,0-250,0s0-170.207,0-250C0,187.676,0,0,0,0s174.261,0,250,0c138.064,0,250,111.929,250,250
	C500,388.064,388.064,500,250,500z"/>
</g></g><g transform="translate(144,18) scale(0.036,0.036)"><g transform="" style="fill: rgb(55, 65, 81);">
<path d="M0,250C0,191.729,0,0,0,0s170.201,0,250,0c62.324,0,250,0,250,0s0,174.261,0,250c0,138.064-111.936,250-250,250
	C111.929,500,0,388.064,0,250z"/>
</g></g><g transform="translate(180,18) scale(0.036,0.036)"><g transform="" style="fill: rgb(55, 65, 81);">
<path d="M500,250c0,58.266,0,250,0,250s-170.194,0-250-0.012c-62.324,0.012-250,0-250,0s0-174.241,0-249.994
	C0.006,111.931,111.929,0,249.994,0C388.064,0,500,111.93,500,250z"/>
</g></g><g transform="translate(216,18) scale(0.036,0.036)"><g transform="" style="fill: rgb(55, 65, 81);">
<g>
	<path d="M500,500V0H0C0.001,276.142,223.853,500,500,500z"/>
</g>
</g></g><g transform="translate(234,18) scale(0.036,0.036)"><g transform="" style="fill: rgb(55, 65, 81);">
<g>
	<path d="M500,0H0v500C276.142,500,500,276.142,500,0z"/>
</g>
</g></g><g transform="translate(288,18) scale(0.036,0.036)"><g transform="" style="fill: rgb(55, 65, 81);">
<path d="M250,0c138.077,0,250,111.93,250,250c0,138.077-111.923,250-250,250C111.93,500,0,388.077,0,250C0,111.93,111.93,0,250,0z"
	/>
</g></g><g transform="translate(324,18) scale(0.036,0.036)"><g transform="" style="fill: rgb(55, 65, 81);">
<path d="M0,250C0,191.729,0,0,0,0s170.201,0,250,0c62.324,0,250,0,250,0s0,174.261,0,250c0,138.064-111.936,250-250,250
	C111.929,500,0,388.064,0,250z"/>
</g></g><g transform="translate(180,36) scale(0.18,0.18)"><g transform="" style="fill: rgb(55, 65, 81);">
<rect width="100" height="100"/>
</g></g><g transform="translate(198,36) scale(0.036,0.036)"><g transform="" style="fill: rgb(55, 65, 81);">
<g>
	<path d="M0,0v500h500C500,223.853,276.142,0,0,0z"/>
</g>
</g></g><g transform="translate(270,36) scale(0.036,0.036)"><g transform="" style="fill: rgb(55, 65, 81);">
<path d="M250,0c138.077,0,250,111.93,250,250c0,138.077-111.923,250-250,250C111.93,500,0,388.077,0,250C0,111.93,111.93,0,250,0z"
	/>
</g></g><g transform="translate(360,36) scale(0.036,0.036)"><g transform="" style="fill: rgb(55, 65, 81);">
<path d="M250,0c138.077,0,250,111.93,250,250c0,138.077-111.923,250-250,250C111.93,500,0,388.077,0,250C0,111.93,111.93,0,250,0z"
	/>
</g></g><g transform="translate(144,54) scale(0.036,0.036)"><g transform="" style="fill: rgb(55, 65, 81);">
<path d="M250,0c138.077,0,250,111.93,250,250c0,138.077-111.923,250-250,250C111.93,500,0,388.077,0,250C0,111.93,111.93,0,250,0z"
	/>
</g></g><g transform="translate(180,54) scale(0.18,0.18)"><g transform="" style="fill: rgb(55, 65, 81);">
<rect width="100" height="100"/>
</g></g><g transform="translate(198,54) scale(0.036,0.036)"><g transform="" style="fill: rgb(55, 65, 81);">
<g>
	<path d="M500,0H0v500C276.142,500,500,276.142,500,0z"/>
</g>
</g></g><g transform="translate(252,54) scale(0.036,0.036)"><g transform="" style="fill: rgb(55, 65, 81);">
<path d="M500,250c0,58.266,0,250,0,250s-170.194,0-250-0.012c-62.324,0.012-250,0-250,0s0-174.241,0-249.994
	C0.006,111.931,111.929,0,249.994,0C388.064,0,500,111.93,500,250z"/>
</g></g><g transform="translate(306,54) scale(0.036,0.036)"><g transform="" style="fill: rgb(55, 65, 81);">
<path d="M250,0c138.077,0,250,111.93,250,250c0,138.077-111.923,250-250,250C111.93,500,0,388.077,0,250C0,111.93,111.93,0,250,0z"
	/>
</g></g><g transform="translate(342,54) scale(0.036,0.036)"><g transform="" style="fill: rgb(55, 65, 81);">
<path d="M500,250c0,58.266,0,250,0,250s-170.194,0-250-0.012c-62.324,0.012-250,0-250,0s0-174.241,0-249.994
	C0.006,111.931,111.929,0,249.994,0C388.064,0,500,111.93,500,250z"/>
</g></g><g transform="translate(162,72) scale(0.036,0.036)"><g transform="" style="fill: rgb(55, 65, 81);">
<path d="M250,0c58.27,0,250,0,250,0s0,170.182,0,250c0,62.305,0,250,0,250s-174.219,0-250,0
	C111.881,500,0,388.021,0,250C0,111.963,111.881,0,250,0z"/>
</g></g><g transform="translate(180,72) scale(0.036,0.036)"><g transform="" style="fill: rgb(55, 65, 81);">
<g>
	<path d="M500,0H0v500C276.142,500,500,276.142,500,0z"/>
</g>
</g></g><g transform="translate(216,72) scale(0.036,0.036)"><g transform="" style="fill: rgb(55, 65, 81);">
<path d="M500,250c0,58.266,0,250,0,250s-170.194,0-250-0.012c-62.324,0.012-250,0-250,0s0-174.241,0-249.994
	C0.006,111.931,111.929,0,249.994,0C388.064,0,500,111.93,500,250z"/>
</g></g><g transform="translate(252,72) scale(0.036,0.036)"><g transform="" style="fill: rgb(55, 65, 81);">
<g>
	<path d="M500,500V0H0C0.001,276.142,223.853,500,500,500z"/>
</g>
</g></g><g transform="translate(270,72) scale(0.036,0.036)"><g transform="" style="fill: rgb(55, 65, 81);">
<path d="M250,500c-58.271,0-250,0-250,0s0-170.207,0-250C0,187.676,0,0,0,0s174.261,0,250,0c138.064,0,250,111.929,250,250
	C500,388.064,388.064,500,250,500z"/>
</g></g><g transform="translate(342,72) scale(0.18,0.18)"><g transform="" style="fill: rgb(55, 65, 81);">
<rect width="100" height="100"/>
</g></g><g transform="translate(198,90) scale(0.036,0.036)"><g transform="" style="fill: rgb(55, 65, 81);">
<path d="M250,0c58.27,0,250,0,250,0s0,170.182,0,250c0,62.305,0,250,0,250s-174.219,0-250,0
	C111.881,500,0,388.021,0,250C0,111.963,111.881,0,250,0z"/>
</g></g><g transform="translate(216,90) scale(0.18,0.18)"><g transform="" style="fill: rgb(55, 65, 81);">
<rect width="100" height="100"/>
</g></g><g transform="translate(234,90) scale(0.036,0.036)"><g transform="" style="fill: rgb(55, 65, 81);">
<path d="M250,500c-58.271,0-250,0-250,0s0-170.207,0-250C0,187.676,0,0,0,0s174.261,0,250,0c138.064,0,250,111.929,250,250
	C500,388.064,388.064,500,250,500z"/>
</g></g><g transform="translate(288,90) scale(0.036,0.036)"><g transform="" style="fill: rgb(55, 65, 81);">
<g>
	<path d="M0,500h500V0C223.861,0.001,0,223.854,0,500z"/>
</g>
</g></g><g transform="translate(306,90) scale(0.18,0.18)"><g transform="" style="fill: rgb(55, 65, 81);">
<rect width="100" height="100"/>
</g></g><g transform="translate(324,90) scale(0.18,0.18)"><g transform="" style="fill: rgb(55, 65, 81);">
<rect width="100" height="100"/>
</g></g><g transform="translate(342,90) scale(0.18,0.18)"><g transform="" style="fill: rgb(55, 65, 81);">
<rect width="100" height="100"/>
</g></g><g transform="translate(360,90) scale(0.036,0.036)"><g transform="" style="fill: rgb(55, 65, 81);">
<g>
	<path d="M0,0v500h500C500,223.853,276.142,0,0,0z"/>
</g>
</g></g><g transform="translate(144,108) scale(0.036,0.036)"><g transform="" style="fill: rgb(55, 65, 81);">
<path d="M500,250c0,58.266,0,250,0,250s-170.194,0-250-0.012c-62.324,0.012-250,0-250,0s0-174.241,0-249.994
	C0.006,111.931,111.929,0,249.994,0C388.064,0,500,111.93,500,250z"/>
</g></g><g transform="translate(180,108) scale(0.036,0.036)"><g transform="" style="fill: rgb(55, 65, 81);">
<path d="M250,0c138.077,0,250,111.93,250,250c0,138.077-111.923,250-250,250C111.93,500,0,388.077,0,250C0,111.93,111.93,0,250,0z"
	/>
</g></g><g transform="translate(216,108) scale(0.036,0.036)"><g transform="" style="fill: rgb(55, 65, 81);">
<path d="M0,250C0,191.729,0,0,0,0s170.201,0,250,0c62.324,0,250,0,250,0s0,174.261,0,250c0,138.064-111.936,250-250,250
	C111.929,500,0,388.064,0,250z"/>
</g></g><g transform="translate(252,108) scale(0.036,0.036)"><g transform="" style="fill: rgb(55, 65, 81);">
<path d="M250,0c138.077,0,250,111.93,250,250c0,138.077-111.923,250-250,250C111.93,500,0,388.077,0,250C0,111.93,111.93,0,250,0z"
	/>
</g></g><g transform="translate(288,108) scale(0.18,0.18)"><g transform="" style="fill: rgb(55, 65, 81);">
<rect width="100" height="100"/>
</g></g><g transform="translate(324,108) scale(0.18,0.18)"><g transform="" style="fill: rgb(55, 65, 81);">
<rect width="100" height="100"/>
</g></g><g transform="translate(360,108) scale(0.036,0.036)"><g transform="" style="fill: rgb(55, 65, 81);">
<path d="M0,250C0,191.729,0,0,0,0s170.201,0,250,0c62.324,0,250,0,250,0s0,174.261,0,250c0,138.064-111.936,250-250,250
	C111.929,500,0,388.064,0,250z"/>
</g></g><g transform="translate(144,126) scale(0.036,0.036)"><g transform="" style="fill: rgb(55, 65, 81);">
<path d="M0,250C0,191.729,0,0,0,0s170.201,0,250,0c62.324,0,250,0,250,0s0,174.261,0,250c0,138.064-111.936,250-250,250
	C111.929,500,0,388.064,0,250z"/>
</g></g><g transform="translate(198,126) scale(0.036,0.036)"><g transform="" style="fill: rgb(55, 65, 81);">
<path d="M500,250c0,58.266,0,250,0,250s-170.194,0-250-0.012c-62.324,0.012-250,0-250,0s0-174.241,0-249.994
	C0.006,111.931,111.929,0,249.994,0C388.064,0,500,111.93,500,250z"/>
</g></g><g transform="translate(270,126) scale(0.036,0.036)"><g transform="" style="fill: rgb(55, 65, 81);">
<path d="M250,0c58.27,0,250,0,250,0s0,170.182,0,250c0,62.305,0,250,0,250s-174.219,0-250,0
	C111.881,500,0,388.021,0,250C0,111.963,111.881,0,250,0z"/>
</g></g><g transform="translate(288,126) scale(0.18,0.18)"><g transform="" style="fill: rgb(55, 65, 81);">
<rect width="100" height="100"/>
</g></g><g transform="translate(306,126) scale(0.18,0.18)"><g transform="" style="fill: rgb(55, 65, 81);">
<rect width="100" height="100"/>
</g></g><g transform="translate(324,126) scale(0.18,0.18)"><g transform="" style="fill: rgb(55, 65, 81);">
<rect width="100" height="100"/>
</g></g><g transform="translate(0,144) scale(0.036,0.036)"><g transform="" style="fill: rgb(55, 65, 81);">
<path d="M250,0c138.077,0,250,111.93,250,250c0,138.077-111.923,250-250,250C111.93,500,0,388.077,0,250C0,111.93,111.93,0,250,0z"
	/>
</g></g><g transform="translate(36,144) scale(0.036,0.036)"><g transform="" style="fill: rgb(55, 65, 81);">
<path d="M250,0c58.27,0,250,0,250,0s0,170.182,0,250c0,62.305,0,250,0,250s-174.219,0-250,0
	C111.881,500,0,388.021,0,250C0,111.963,111.881,0,250,0z"/>
</g></g><g transform="translate(54,144) scale(0.036,0.036)"><g transform="" style="fill: rgb(55, 65, 81);">
<path d="M250,500c-58.271,0-250,0-250,0s0-170.207,0-250C0,187.676,0,0,0,0s174.261,0,250,0c138.064,0,250,111.929,250,250
	C500,388.064,388.064,500,250,500z"/>
</g></g><g transform="translate(90,144) scale(0.036,0.036)"><g transform="" style="fill: rgb(55, 65, 81);">
<g>
	<path d="M0,500h500V0C223.861,0.001,0,223.854,0,500z"/>
</g>
</g></g><g transform="translate(108,144) scale(0.18,0.18)"><g transform="" style="fill: rgb(55, 65, 81);">
<rect width="100" height="100"/>
</g></g><g transform="translate(126,144) scale(0.036,0.036)"><g transform="" style="fill: rgb(55, 65, 81);">
<path d="M250,500c-58.271,0-250,0-250,0s0-170.207,0-250C0,187.676,0,0,0,0s174.261,0,250,0c138.064,0,250,111.929,250,250
	C500,388.064,388.064,500,250,500z"/>
</g></g><g transform="translate(198,144) scale(0.18,0.18)"><g transform="" style="fill: rgb(55, 65, 81);">
<rect width="100" height="100"/>
</g></g><g transform="translate(234,144) scale(0.036,0.036)"><g transform="" style="fill: rgb(55, 65, 81);">
<path d="M500,250c0,58.266,0,250,0,250s-170.194,0-250-0.012c-62.324,0.012-250,0-250,0s0-174.241,0-249.994
	C0.006,111.931,111.929,0,249.994,0C388.064,0,500,111.93,500,250z"/>
</g></g><g transform="translate(306,144) scale(0.18,0.18)"><g transform="" style="fill: rgb(55, 65, 81);">
<rect width="100" height="100"/>
</g></g><g transform="translate(324,144) scale(0.18,0.18)"><g transform="" style="fill: rgb(55, 65, 81);">
<rect width="100" height="100"/>
</g></g><g transform="translate(396,144) scale(0.036,0.036)"><g transform="" style="fill: rgb(55, 65, 81);">
<path d="M500,250c0,58.266,0,250,0,250s-170.194,0-250-0.012c-62.324,0.012-250,0-250,0s0-174.241,0-249.994
	C0.006,111.931,111.929,0,249.994,0C388.064,0,500,111.93,500,250z"/>
</g></g><g transform="translate(450,144) scale(0.036,0.036)"><g transform="" style="fill: rgb(55, 65, 81);">
<path d="M250,0c138.077,0,250,111.93,250,250c0,138.077-111.923,250-250,250C111.93,500,0,388.077,0,250C0,111.93,111.93,0,250,0z"
	/>
</g></g><g transform="translate(486,144) scale(0.036,0.036)"><g transform="" style="fill: rgb(55, 65, 81);">
<path d="M250,0c58.27,0,250,0,250,0s0,170.182,0,250c0,62.305,0,250,0,250s-174.219,0-250,0
	C111.881,500,0,388.021,0,250C0,111.963,111.881,0,250,0z"/>
</g></g><g transform="translate(504,144) scale(0.036,0.036)"><g transform="" style="fill: rgb(55, 65, 81);">
<g>
	<path d="M0,0v500h500C500,223.853,276.142,0,0,0z"/>
</g>
</g></g><g transform="translate(90,162) scale(0.18,0.18)"><g transform="" style="fill: rgb(55, 65, 81);">
<rect width="100" height="100"/>
</g></g><g transform="translate(144,162) scale(0.036,0.036)"><g transform="" style="fill: rgb(55, 65, 81);">
<path d="M250,0c58.27,0,250,0,250,0s0,170.182,0,250c0,62.305,0,250,0,250s-174.219,0-250,0
	C111.881,500,0,388.021,0,250C0,111.963,111.881,0,250,0z"/>
</g></g><g transform="translate(162,162) scale(0.18,0.18)"><g transform="" style="fill: rgb(55, 65, 81);">
<rect width="100" height="100"/>
</g></g><g transform="translate(180,162) scale(0.18,0.18)"><g transform="" style="fill: rgb(55, 65, 81);">
<rect width="100" height="100"/>
</g></g><g transform="translate(198,162) scale(0.18,0.18)"><g transform="" style="fill: rgb(55, 65, 81);">
<rect width="100" height="100"/>
</g></g><g transform="translate(216,162) scale(0.18,0.18)"><g transform="" style="fill: rgb(55, 65, 81);">
<rect width="100" height="100"/>
</g></g><g transform="translate(234,162) scale(0.18,0.18)"><g transform="" style="fill: rgb(55, 65, 81);">
<rect width="100" height="100"/>
</g></g><g transform="translate(252,162) scale(0.036,0.036)"><g transform="" style="fill: rgb(55, 65, 81);">
<path d="M250,500c-58.271,0-250,0-250,0s0-170.207,0-250C0,187.676,0,0,0,0s174.261,0,250,0c138.064,0,250,111.929,250,250
	C500,388.064,388.064,500,250,500z"/>
</g></g><g transform="translate(288,162) scale(0.036,0.036)"><g transform="" style="fill: rgb(55, 65, 81);">
<g>
	<path d="M0,500h500V0C223.861,0.001,0,223.854,0,500z"/>
</g>
</g></g><g transform="translate(306,162) scale(0.18,0.18)"><g transform="" style="fill: rgb(55, 65, 81);">
<rect width="100" height="100"/>
</g></g><g transform="translate(324,162) scale(0.18,0.18)"><g transform="" style="fill: rgb(55, 65, 81);">
<rect width="100" height="100"/>
</g></g><g transform="translate(342,162) scale(0.18,0.18)"><g transform="" style="fill: rgb(55, 65, 81);">
<rect width="100" height="100"/>
</g></g><g transform="translate(360,162) scale(0.18,0.18)"><g transform="" style="fill: rgb(55, 65, 81);">
<rect width="100" height="100"/>
</g></g><g transform="translate(378,162) scale(0.18,0.18)"><g transform="" style="fill: rgb(55, 65, 81);">
<rect width="100" height="100"/>
</g></g><g transform="translate(396,162) scale(0.18,0.18)"><g transform="" style="fill: rgb(55, 65, 81);">
<rect width="100" height="100"/>
</g></g><g transform="translate(414,162) scale(0.18,0.18)"><g transform="" style="fill: rgb(55, 65, 81);">
<rect width="100" height="100"/>
</g></g><g transform="translate(432,162) scale(0.036,0.036)"><g transform="" style="fill: rgb(55, 65, 81);">
<g>
	<path d="M0,0v500h500C500,223.853,276.142,0,0,0z"/>
</g>
</g></g><g transform="translate(504,162) scale(0.036,0.036)"><g transform="" style="fill: rgb(55, 65, 81);">
<path d="M0,250C0,191.729,0,0,0,0s170.201,0,250,0c62.324,0,250,0,250,0s0,174.261,0,250c0,138.064-111.936,250-250,250
	C111.929,500,0,388.064,0,250z"/>
</g></g><g transform="translate(18,180) scale(0.036,0.036)"><g transform="" style="fill: rgb(55, 65, 81);">
<g>
	<path d="M0,500h500V0C223.861,0.001,0,223.854,0,500z"/>
</g>
</g></g><g transform="translate(36,180) scale(0.036,0.036)"><g transform="" style="fill: rgb(55, 65, 81);">
<g>
	<path d="M0,0v500h500C500,223.853,276.142,0,0,0z"/>
</g>
</g></g><g transform="translate(90,180) scale(0.18,0.18)"><g transform="" style="fill: rgb(55, 65, 81);">
<rect width="100" height="100"/>
</g></g><g transform="translate(108,180) scale(0.036,0.036)"><g transform="" style="fill: rgb(55, 65, 81);">
<path d="M250,500c-58.271,0-250,0-250,0s0-170.207,0-250C0,187.676,0,0,0,0s174.261,0,250,0c138.064,0,250,111.929,250,250
	C500,388.064,388.064,500,250,500z"/>
</g></g><g transform="translate(180,180) scale(0.036,0.036)"><g transform="" style="fill: rgb(55, 65, 81);">
<g>
	<path d="M500,500V0H0C0.001,276.142,223.853,500,500,500z"/>
</g>
</g></g><g transform="translate(198,180) scale(0.18,0.18)"><g transform="" style="fill: rgb(55, 65, 81);">
<rect width="100" height="100"/>
</g></g><g transform="translate(234,180) scale(0.036,0.036)"><g transform="" style="fill: rgb(55, 65, 81);">
<path d="M0,250C0,191.729,0,0,0,0s170.201,0,250,0c62.324,0,250,0,250,0s0,174.261,0,250c0,138.064-111.936,250-250,250
	C111.929,500,0,388.064,0,250z"/>
</g></g><g transform="translate(288,180) scale(0.036,0.036)"><g transform="" style="fill: rgb(55, 65, 81);">
<g>
	<path d="M500,500V0H0C0.001,276.142,223.853,500,500,500z"/>
</g>
</g></g><g transform="translate(306,180) scale(0.18,0.18)"><g transform="" style="fill: rgb(55, 65, 81);">
<rect width="100" height="100"/>
</g></g><g transform="translate(324,180) scale(0.036,0.036)"><g transform="" style="fill: rgb(55, 65, 81);">
<g>
	<path d="M500,0H0v500C276.142,500,500,276.142,500,0z"/>
</g>
</g></g><g transform="translate(396,180) scale(0.18,0.18)"><g transform="" style="fill: rgb(55, 65, 81);">
<rect width="100" height="100"/>
</g></g><g transform="translate(414,180) scale(0.18,0.18)"><g transform="" style="fill: rgb(55, 65, 81);">
<rect width="100" height="100"/>
</g></g><g transform="translate(432,180) scale(0.036,0.036)"><g transform="" style="fill: rgb(55, 65, 81);">
<g>
	<path d="M500,0H0v500C276.142,500,500,276.142,500,0z"/>
</g>
</g></g><g transform="translate(468,180) scale(0.036,0.036)"><g transform="" style="fill: rgb(55, 65, 81);">
<path d="M250,0c58.27,0,250,0,250,0s0,170.182,0,250c0,62.305,0,250,0,250s-174.219,0-250,0
	C111.881,500,0,388.021,0,250C0,111.963,111.881,0,250,0z"/>
</g></g><g transform="translate(486,180) scale(0.036,0.036)"><g transform="" style="fill: rgb(55, 65, 81);">
<path d="M250,500c-58.271,0-250,0-250,0s0-170.207,0-250C0,187.676,0,0,0,0s174.261,0,250,0c138.064,0,250,111.929,250,250
	C500,388.064,388.064,500,250,500z"/>
</g></g><g transform="translate(18,198) scale(0.036,0.036)"><g transform="" style="fill: rgb(55, 65, 81);">
<g>
	<path d="M500,500V0H0C0.001,276.142,223.853,500,500,500z"/>
</g>
</g></g><g transform="translate(36,198) scale(0.036,0.036)"><g transform="" style="fill: rgb(55, 65, 81);">
<g>
	<path d="M500,0H0v500C276.142,500,500,276.142,500,0z"/>
</g>
</g></g><g transform="translate(72,198) scale(0.036,0.036)"><g transform="" style="fill: rgb(55, 65, 81);">
<path d="M250,0c58.27,0,250,0,250,0s0,170.182,0,250c0,62.305,0,250,0,250s-174.219,0-250,0
	C111.881,500,0,388.021,0,250C0,111.963,111.881,0,250,0z"/>
</g></g><g transform="translate(90,198) scale(0.18,0.18)"><g transform="" style="fill: rgb(55, 65, 81);">
<rect width="100" height="100"/>
</g></g><g transform="translate(126,198) scale(0.036,0.036)"><g transform="" style="fill: rgb(55, 65, 81);">
<path d="M250,0c138.077,0,250,111.93,250,250c0,138.077-111.923,250-250,250C111.93,500,0,388.077,0,250C0,111.93,111.93,0,250,0z"
	/>
</g></g><g transform="translate(198,198) scale(0.18,0.18)"><g transform="" style="fill: rgb(55, 65, 81);">
<rect width="100" height="100"/>
</g></g><g transform="translate(342,198) scale(0.036,0.036)"><g transform="" style="fill: rgb(55, 65, 81);">
<path d="M250,0c138.077,0,250,111.93,250,250c0,138.077-111.923,250-250,250C111.93,500,0,388.077,0,250C0,111.93,111.93,0,250,0z"
	/>
</g></g><g transform="translate(378,198) scale(0.036,0.036)"><g transform="" style="fill: rgb(55, 65, 81);">
<path d="M250,0c58.27,0,250,0,250,0s0,170.182,0,250c0,62.305,0,250,0,250s-174.219,0-250,0
	C111.881,500,0,388.021,0,250C0,111.963,111.881,0,250,0z"/>
</g></g><g transform="translate(396,198) scale(0.036,0.036)"><g transform="" style="fill: rgb(55, 65, 81);">
<g>
	<path d="M500,0H0v500C276.142,500,500,276.142,500,0z"/>
</g>
</g></g><g transform="translate(504,198) scale(0.036,0.036)"><g transform="" style="fill: rgb(55, 65, 81);">
<path d="M250,0c138.077,0,250,111.93,250,250c0,138.077-111.923,250-250,250C111.93,500,0,388.077,0,250C0,111.93,111.93,0,250,0z"
	/>
</g></g><g transform="translate(90,216) scale(0.18,0.18)"><g transform="" style="fill: rgb(55, 65, 81);">
<rect width="100" height="100"/>
</g></g><g transform="translate(108,216) scale(0.036,0.036)"><g transform="" style="fill: rgb(55, 65, 81);">
<path d="M250,500c-58.271,0-250,0-250,0s0-170.207,0-250C0,187.676,0,0,0,0s174.261,0,250,0c138.064,0,250,111.929,250,250
	C500,388.064,388.064,500,250,500z"/>
</g></g><g transform="translate(144,216) scale(0.036,0.036)"><g transform="" style="fill: rgb(55, 65, 81);">
<path d="M250,0c138.077,0,250,111.93,250,250c0,138.077-111.923,250-250,250C111.93,500,0,388.077,0,250C0,111.93,111.93,0,250,0z"
	/>
</g></g><g transform="translate(180,216) scale(0.036,0.036)"><g transform="" style="fill: rgb(55, 65, 81);">
<g>
	<path d="M0,500h500V0C223.861,0.001,0,223.854,0,500z"/>
</g>
</g></g><g transform="translate(198,216) scale(0.18,0.18)"><g transform="" style="fill: rgb(55, 65, 81);">
<rect width="100" height="100"/>
</g></g><g transform="translate(216,216) scale(0.036,0.036)"><g transform="" style="fill: rgb(55, 65, 81);">
<g>
	<path d="M0,0v500h500C500,223.853,276.142,0,0,0z"/>
</g>
</g></g><g transform="translate(252,216) scale(0.036,0.036)"><g transform="" style="fill: rgb(55, 65, 81);">
<g>
	<path d="M0,500h500V0C223.861,0.001,0,223.854,0,500z"/>
</g>
</g></g><g transform="translate(270,216) scale(0.036,0.036)"><g transform="" style="fill: rgb(55, 65, 81);">
<g>
	<path d="M0,0v500h500C500,223.853,276.142,0,0,0z"/>
</g>
</g></g><g transform="translate(306,216) scale(0.036,0.036)"><g transform="" style="fill: rgb(55, 65, 81);">
<path d="M250,0c138.077,0,250,111.93,250,250c0,138.077-111.923,250-250,250C111.93,500,0,388.077,0,250C0,111.93,111.93,0,250,0z"
	/>
</g></g><g transform="translate(414,216) scale(0.036,0.036)"><g transform="" style="fill: rgb(55, 65, 81);">
<path d="M250,0c138.077,0,250,111.93,250,250c0,138.077-111.923,250-250,250C111.93,500,0,388.077,0,250C0,111.93,111.93,0,250,0z"
	/>
</g></g><g transform="translate(450,216) scale(0.036,0.036)"><g transform="" style="fill: rgb(55, 65, 81);">
<path d="M250,0c58.27,0,250,0,250,0s0,170.182,0,250c0,62.305,0,250,0,250s-174.219,0-250,0
	C111.881,500,0,388.021,0,250C0,111.963,111.881,0,250,0z"/>
</g></g><g transform="translate(468,216) scale(0.036,0.036)"><g transform="" style="fill: rgb(55, 65, 81);">
<g>
	<path d="M0,0v500h500C500,223.853,276.142,0,0,0z"/>
</g>
</g></g><g transform="translate(36,234) scale(0.036,0.036)"><g transform="" style="fill: rgb(55, 65, 81);">
<g>
	<path d="M0,500h500V0C223.861,0.001,0,223.854,0,500z"/>
</g>
</g></g><g transform="translate(54,234) scale(0.18,0.18)"><g transform="" style="fill: rgb(55, 65, 81);">
<rect width="100" height="100"/>
</g></g><g transform="translate(72,234) scale(0.18,0.18)"><g transform="" style="fill: rgb(55, 65, 81);">
<rect width="100" height="100"/>
</g></g><g transform="translate(90,234) scale(0.036,0.036)"><g transform="" style="fill: rgb(55, 65, 81);">
<g>
	<path d="M500,0H0v500C276.142,500,500,276.142,500,0z"/>
</g>
</g></g><g transform="translate(180,234) scale(0.036,0.036)"><g transform="" style="fill: rgb(55, 65, 81);">
<g>
	<path d="M500,500V0H0C0.001,276.142,223.853,500,500,500z"/>
</g>
</g></g><g transform="translate(198,234) scale(0.18,0.18)"><g transform="" style="fill: rgb(55, 65, 81);">
<rect width="100" height="100"/>
</g></g><g transform="translate(216,234) scale(0.036,0.036)"><g transform="" style="fill: rgb(55, 65, 81);">
<g>
	<path d="M500,0H0v500C276.142,500,500,276.142,500,0z"/>
</g>
</g></g><g transform="translate(252,234) scale(0.036,0.036)"><g transform="" style="fill: rgb(55, 65, 81);">
<g>
	<path d="M500,500V0H0C0.001,276.142,223.853,500,500,500z"/>
</g>
</g></g><g transform="translate(270,234) scale(0.18,0.18)"><g transform="" style="fill: rgb(55, 65, 81);">
<rect width="100" height="100"/>
</g></g><g transform="translate(288,234) scale(0.036,0.036)"><g transform="" style="fill: rgb(55, 65, 81);">
<g>
	<path d="M0,0v500h500C500,223.853,276.142,0,0,0z"/>
</g>
</g></g><g transform="translate(342,234) scale(0.036,0.036)"><g transform="" style="fill: rgb(55, 65, 81);">
<path d="M500,250c0,58.266,0,250,0,250s-170.194,0-250-0.012c-62.324,0.012-250,0-250,0s0-174.241,0-249.994
	C0.006,111.931,111.929,0,249.994,0C388.064,0,500,111.93,500,250z"/>
</g></g><g transform="translate(396,234) scale(0.036,0.036)"><g transform="" style="fill: rgb(55, 65, 81);">
<path d="M500,250c0,58.266,0,250,0,250s-170.194,0-250-0.012c-62.324,0.012-250,0-250,0s0-174.241,0-249.994
	C0.006,111.931,111.929,0,249.994,0C388.064,0,500,111.93,500,250z"/>
</g></g><g transform="translate(468,234) scale(0.18,0.18)"><g transform="" style="fill: rgb(55, 65, 81);">
<rect width="100" height="100"/>
</g></g><g transform="translate(486,234) scale(0.18,0.18)"><g transform="" style="fill: rgb(55, 65, 81);">
<rect width="100" height="100"/>
</g></g><g transform="translate(504,234) scale(0.036,0.036)"><g transform="" style="fill: rgb(55, 65, 81);">
<g>
	<path d="M0,0v500h500C500,223.853,276.142,0,0,0z"/>
</g>
</g></g><g transform="translate(36,252) scale(0.036,0.036)"><g transform="" style="fill: rgb(55, 65, 81);">
<g>
	<path d="M500,500V0H0C0.001,276.142,223.853,500,500,500z"/>
</g>
</g></g><g transform="translate(54,252) scale(0.18,0.18)"><g transform="" style="fill: rgb(55, 65, 81);">
<rect width="100" height="100"/>
</g></g><g transform="translate(72,252) scale(0.18,0.18)"><g transform="" style="fill: rgb(55, 65, 81);">
<rect width="100" height="100"/>
</g></g><g transform="translate(108,252) scale(0.036,0.036)"><g transform="" style="fill: rgb(55, 65, 81);">
<path d="M250,0c58.27,0,250,0,250,0s0,170.182,0,250c0,62.305,0,250,0,250s-174.219,0-250,0
	C111.881,500,0,388.021,0,250C0,111.963,111.881,0,250,0z"/>
</g></g><g transform="translate(126,252) scale(0.18,0.18)"><g transform="" style="fill: rgb(55, 65, 81);">
<rect width="100" height="100"/>
</g></g><g transform="translate(144,252) scale(0.036,0.036)"><g transform="" style="fill: rgb(55, 65, 81);">
<path d="M250,500c-58.271,0-250,0-250,0s0-170.207,0-250C0,187.676,0,0,0,0s174.261,0,250,0c138.064,0,250,111.929,250,250
	C500,388.064,388.064,500,250,500z"/>
</g></g><g transform="translate(234,252) scale(0.036,0.036)"><g transform="" style="fill: rgb(55, 65, 81);">
<path d="M250,0c138.077,0,250,111.93,250,250c0,138.077-111.923,250-250,250C111.93,500,0,388.077,0,250C0,111.93,111.93,0,250,0z"
	/>
</g></g><g transform="translate(288,252) scale(0.18,0.18)"><g transform="" style="fill: rgb(55, 65, 81);">
<rect width="100" height="100"/>
</g></g><g transform="translate(342,252) scale(0.18,0.18)"><g transform="" style="fill: rgb(55, 65, 81);">
<rect width="100" height="100"/>
</g></g><g transform="translate(396,252) scale(0.18,0.18)"><g transform="" style="fill: rgb(55, 65, 81);">
<rect width="100" height="100"/>
</g></g><g transform="translate(432,252) scale(0.036,0.036)"><g transform="" style="fill: rgb(55, 65, 81);">
<path d="M500,250c0,58.266,0,250,0,250s-170.194,0-250-0.012c-62.324,0.012-250,0-250,0s0-174.241,0-249.994
	C0.006,111.931,111.929,0,249.994,0C388.064,0,500,111.93,500,250z"/>
</g></g><g transform="translate(468,252) scale(0.036,0.036)"><g transform="" style="fill: rgb(55, 65, 81);">
<g>
	<path d="M500,500V0H0C0.001,276.142,223.853,500,500,500z"/>
</g>
</g></g><g transform="translate(486,252) scale(0.18,0.18)"><g transform="" style="fill: rgb(55, 65, 81);">
<rect width="100" height="100"/>
</g></g><g transform="translate(504,252) scale(0.036,0.036)"><g transform="" style="fill: rgb(55, 65, 81);">
<g>
	<path d="M500,0H0v500C276.142,500,500,276.142,500,0z"/>
</g>
</g></g><g transform="translate(18,270) scale(0.036,0.036)"><g transform="" style="fill: rgb(55, 65, 81);">
<path d="M500,250c0,58.266,0,250,0,250s-170.194,0-250-0.012c-62.324,0.012-250,0-250,0s0-174.241,0-249.994
	C0.006,111.931,111.929,0,249.994,0C388.064,0,500,111.93,500,250z"/>
</g></g><g transform="translate(72,270) scale(0.036,0.036)"><g transform="" style="fill: rgb(55, 65, 81);">
<path d="M0,250C0,191.729,0,0,0,0s170.201,0,250,0c62.324,0,250,0,250,0s0,174.261,0,250c0,138.064-111.936,250-250,250
	C111.929,500,0,388.064,0,250z"/>
</g></g><g transform="translate(126,270) scale(0.036,0.036)"><g transform="" style="fill: rgb(55, 65, 81);">
<path d="M0,250C0,191.729,0,0,0,0s170.201,0,250,0c62.324,0,250,0,250,0s0,174.261,0,250c0,138.064-111.936,250-250,250
	C111.929,500,0,388.064,0,250z"/>
</g></g><g transform="translate(162,270) scale(0.036,0.036)"><g transform="" style="fill: rgb(55, 65, 81);">
<g>
	<path d="M0,500h500V0C223.861,0.001,0,223.854,0,500z"/>
</g>
</g></g><g transform="translate(180,270) scale(0.036,0.036)"><g transform="" style="fill: rgb(55, 65, 81);">
<path d="M250,500c-58.271,0-250,0-250,0s0-170.207,0-250C0,187.676,0,0,0,0s174.261,0,250,0c138.064,0,250,111.929,250,250
	C500,388.064,388.064,500,250,500z"/>
</g></g><g transform="translate(252,270) scale(0.036,0.036)"><g transform="" style="fill: rgb(55, 65, 81);">
<g>
	<path d="M0,500h500V0C223.861,0.001,0,223.854,0,500z"/>
</g>
</g></g><g transform="translate(270,270) scale(0.18,0.18)"><g transform="" style="fill: rgb(55, 65, 81);">
<rect width="100" height="100"/>
</g></g><g transform="translate(288,270) scale(0.036,0.036)"><g transform="" style="fill: rgb(55, 65, 81);">
<g>
	<path d="M500,0H0v500C276.142,500,500,276.142,500,0z"/>
</g>
</g></g><g transform="translate(342,270) scale(0.036,0.036)"><g transform="" style="fill: rgb(55, 65, 81);">
<path d="M0,250C0,191.729,0,0,0,0s170.201,0,250,0c62.324,0,250,0,250,0s0,174.261,0,250c0,138.064-111.936,250-250,250
	C111.929,500,0,388.064,0,250z"/>
</g></g><g transform="translate(396,270) scale(0.036,0.036)"><g transform="" style="fill: rgb(55, 65, 81);">
<path d="M0,250C0,191.729,0,0,0,0s170.201,0,250,0c62.324,0,250,0,250,0s0,174.261,0,250c0,138.064-111.936,250-250,250
	C111.929,500,0,388.064,0,250z"/>
</g></g><g transform="translate(432,270) scale(0.18,0.18)"><g transform="" style="fill: rgb(55, 65, 81);">
<rect width="100" height="100"/>
</g></g><g transform="translate(486,270) scale(0.18,0.18)"><g transform="" style="fill: rgb(55, 65, 81);">
<rect width="100" height="100"/>
</g></g><g transform="translate(18,288) scale(0.036,0.036)"><g transform="" style="fill: rgb(55, 65, 81);">
<path d="M0,250C0,191.729,0,0,0,0s170.201,0,250,0c62.324,0,250,0,250,0s0,174.261,0,250c0,138.064-111.936,250-250,250
	C111.929,500,0,388.064,0,250z"/>
</g></g><g transform="translate(54,288) scale(0.036,0.036)"><g transform="" style="fill: rgb(55, 65, 81);">
<path d="M250,0c138.077,0,250,111.93,250,250c0,138.077-111.923,250-250,250C111.93,500,0,388.077,0,250C0,111.93,111.93,0,250,0z"
	/>
</g></g><g transform="translate(90,288) scale(0.036,0.036)"><g transform="" style="fill: rgb(55, 65, 81);">
<g>
	<path d="M0,500h500V0C223.861,0.001,0,223.854,0,500z"/>
</g>
</g></g><g transform="translate(108,288) scale(0.036,0.036)"><g transform="" style="fill: rgb(55, 65, 81);">
<path d="M250,500c-58.271,0-250,0-250,0s0-170.207,0-250C0,187.676,0,0,0,0s174.261,0,250,0c138.064,0,250,111.929,250,250
	C500,388.064,388.064,500,250,500z"/>
</g></g><g transform="translate(144,288) scale(0.036,0.036)"><g transform="" style="fill: rgb(55, 65, 81);">
<path d="M250,0c58.27,0,250,0,250,0s0,170.182,0,250c0,62.305,0,250,0,250s-174.219,0-250,0
	C111.881,500,0,388.021,0,250C0,111.963,111.881,0,250,0z"/>
</g></g><g transform="translate(162,288) scale(0.036,0.036)"><g transform="" style="fill: rgb(55, 65, 81);">
<g>
	<path d="M500,0H0v500C276.142,500,500,276.142,500,0z"/>
</g>
</g></g><g transform="translate(198,288) scale(0.036,0.036)"><g transform="" style="fill: rgb(55, 65, 81);">
<g>
	<path d="M0,500h500V0C223.861,0.001,0,223.854,0,500z"/>
</g>
</g></g><g transform="translate(216,288) scale(0.036,0.036)"><g transform="" style="fill: rgb(55, 65, 81);">
<g>
	<path d="M0,0v500h500C500,223.853,276.142,0,0,0z"/>
</g>
</g></g><g transform="translate(252,288) scale(0.18,0.18)"><g transform="" style="fill: rgb(55, 65, 81);">
<rect width="100" height="100"/>
</g></g><g transform="translate(324,288) scale(0.036,0.036)"><g transform="" style="fill: rgb(55, 65, 81);">
<path d="M500,250c0,58.266,0,250,0,250s-170.194,0-250-0.012c-62.324,0.012-250,0-250,0s0-174.241,0-249.994
	C0.006,111.931,111.929,0,249.994,0C388.064,0,500,111.93,500,250z"/>
</g></g><g transform="translate(378,288) scale(0.036,0.036)"><g transform="" style="fill: rgb(55, 65, 81);">
<path d="M500,250c0,58.266,0,250,0,250s-170.194,0-250-0.012c-62.324,0.012-250,0-250,0s0-174.241,0-249.994
	C0.006,111.931,111.929,0,249.994,0C388.064,0,500,111.93,500,250z"/>
</g></g><g transform="translate(432,288) scale(0.036,0.036)"><g transform="" style="fill: rgb(55, 65, 81);">
<g>
	<path d="M500,500V0H0C0.001,276.142,223.853,500,500,500z"/>
</g>
</g></g><g transform="translate(450,288) scale(0.036,0.036)"><g transform="" style="fill: rgb(55, 65, 81);">
<g>
	<path d="M0,0v500h500C500,223.853,276.142,0,0,0z"/>
</g>
</g></g><g transform="translate(486,288) scale(0.18,0.18)"><g transform="" style="fill: rgb(55, 65, 81);">
<rect width="100" height="100"/>
</g></g><g transform="translate(72,306) scale(0.036,0.036)"><g transform="" style="fill: rgb(55, 65, 81);">
<g>
	<path d="M0,500h500V0C223.861,0.001,0,223.854,0,500z"/>
</g>
</g></g><g transform="translate(90,306) scale(0.036,0.036)"><g transform="" style="fill: rgb(55, 65, 81);">
<g>
	<path d="M500,0H0v500C276.142,500,500,276.142,500,0z"/>
</g>
</g></g><g transform="translate(126,306) scale(0.036,0.036)"><g transform="" style="fill: rgb(55, 65, 81);">
<path d="M250,0c138.077,0,250,111.93,250,250c0,138.077-111.923,250-250,250C111.93,500,0,388.077,0,250C0,111.93,111.93,0,250,0z"
	/>
</g></g><g transform="translate(198,306) scale(0.18,0.18)"><g transform="" style="fill: rgb(55, 65, 81);">
<rect width="100" height="100"/>
</g></g><g transform="translate(216,306) scale(0.036,0.036)"><g transform="" style="fill: rgb(55, 65, 81);">
<g>
	<path d="M500,0H0v500C276.142,500,500,276.142,500,0z"/>
</g>
</g></g><g transform="translate(252,306) scale(0.18,0.18)"><g transform="" style="fill: rgb(55, 65, 81);">
<rect width="100" height="100"/>
</g></g><g transform="translate(270,306) scale(0.036,0.036)"><g transform="" style="fill: rgb(55, 65, 81);">
<g>
	<path d="M0,0v500h500C500,223.853,276.142,0,0,0z"/>
</g>
</g></g><g transform="translate(324,306) scale(0.036,0.036)"><g transform="" style="fill: rgb(55, 65, 81);">
<path d="M0,250C0,191.729,0,0,0,0s170.201,0,250,0c62.324,0,250,0,250,0s0,174.261,0,250c0,138.064-111.936,250-250,250
	C111.929,500,0,388.064,0,250z"/>
</g></g><g transform="translate(360,306) scale(0.036,0.036)"><g transform="" style="fill: rgb(55, 65, 81);">
<path d="M250,0c58.27,0,250,0,250,0s0,170.182,0,250c0,62.305,0,250,0,250s-174.219,0-250,0
	C111.881,500,0,388.021,0,250C0,111.963,111.881,0,250,0z"/>
</g></g><g transform="translate(378,306) scale(0.036,0.036)"><g transform="" style="fill: rgb(55, 65, 81);">
<g>
	<path d="M500,0H0v500C276.142,500,500,276.142,500,0z"/>
</g>
</g></g><g transform="translate(414,306) scale(0.036,0.036)"><g transform="" style="fill: rgb(55, 65, 81);">
<path d="M500,250c0,58.266,0,250,0,250s-170.194,0-250-0.012c-62.324,0.012-250,0-250,0s0-174.241,0-249.994
	C0.006,111.931,111.929,0,249.994,0C388.064,0,500,111.93,500,250z"/>
</g></g><g transform="translate(450,306) scale(0.036,0.036)"><g transform="" style="fill: rgb(55, 65, 81);">
<g>
	<path d="M500,500V0H0C0.001,276.142,223.853,500,500,500z"/>
</g>
</g></g><g transform="translate(468,306) scale(0.18,0.18)"><g transform="" style="fill: rgb(55, 65, 81);">
<rect width="100" height="100"/>
</g></g><g transform="translate(486,306) scale(0.036,0.036)"><g transform="" style="fill: rgb(55, 65, 81);">
<g>
	<path d="M500,0H0v500C276.142,500,500,276.142,500,0z"/>
</g>
</g></g><g transform="translate(0,324) scale(0.036,0.036)"><g transform="" style="fill: rgb(55, 65, 81);">
<path d="M250,0c138.077,0,250,111.93,250,250c0,138.077-111.923,250-250,250C111.93,500,0,388.077,0,250C0,111.93,111.93,0,250,0z"
	/>
</g></g><g transform="translate(54,324) scale(0.036,0.036)"><g transform="" style="fill: rgb(55, 65, 81);">
<path d="M250,0c58.27,0,250,0,250,0s0,170.182,0,250c0,62.305,0,250,0,250s-174.219,0-250,0
	C111.881,500,0,388.021,0,250C0,111.963,111.881,0,250,0z"/>
</g></g><g transform="translate(72,324) scale(0.18,0.18)"><g transform="" style="fill: rgb(55, 65, 81);">
<rect width="100" height="100"/>
</g></g><g transform="translate(108,324) scale(0.036,0.036)"><g transform="" style="fill: rgb(55, 65, 81);">
<path d="M250,0c138.077,0,250,111.93,250,250c0,138.077-111.923,250-250,250C111.93,500,0,388.077,0,250C0,111.93,111.93,0,250,0z"
	/>
</g></g><g transform="translate(162,324) scale(0.036,0.036)"><g transform="" style="fill: rgb(55, 65, 81);">
<g>
	<path d="M0,500h500V0C223.861,0.001,0,223.854,0,500z"/>
</g>
</g></g><g transform="translate(180,324) scale(0.18,0.18)"><g transform="" style="fill: rgb(55, 65, 81);">
<rect width="100" height="100"/>
</g></g><g transform="translate(198,324) scale(0.036,0.036)"><g transform="" style="fill: rgb(55, 65, 81);">
<g>
	<path d="M500,0H0v500C276.142,500,500,276.142,500,0z"/>
</g>
</g></g><g transform="translate(234,324) scale(0.036,0.036)"><g transform="" style="fill: rgb(55, 65, 81);">
<g>
	<path d="M0,500h500V0C223.861,0.001,0,223.854,0,500z"/>
</g>
</g></g><g transform="translate(252,324) scale(0.18,0.18)"><g transform="" style="fill: rgb(55, 65, 81);">
<rect width="100" height="100"/>
</g></g><g transform="translate(270,324) scale(0.18,0.18)"><g transform="" style="fill: rgb(55, 65, 81);">
<rect width="100" height="100"/>
</g></g><g transform="translate(306,324) scale(0.036,0.036)"><g transform="" style="fill: rgb(55, 65, 81);">
<path d="M500,250c0,58.266,0,250,0,250s-170.194,0-250-0.012c-62.324,0.012-250,0-250,0s0-174.241,0-249.994
	C0.006,111.931,111.929,0,249.994,0C388.064,0,500,111.93,500,250z"/>
</g></g><g transform="translate(414,324) scale(0.036,0.036)"><g transform="" style="fill: rgb(55, 65, 81);">
<g>
	<path d="M500,500V0H0C0.001,276.142,223.853,500,500,500z"/>
</g>
</g></g><g transform="translate(432,324) scale(0.036,0.036)"><g transform="" style="fill: rgb(55, 65, 81);">
<path d="M250,500c-58.271,0-250,0-250,0s0-170.207,0-250C0,187.676,0,0,0,0s174.261,0,250,0c138.064,0,250,111.929,250,250
	C500,388.064,388.064,500,250,500z"/>
</g></g><g transform="translate(468,324) scale(0.18,0.18)"><g transform="" style="fill: rgb(55, 65, 81);">
<rect width="100" height="100"/>
</g></g><g transform="translate(36,342) scale(0.036,0.036)"><g transform="" style="fill: rgb(55, 65, 81);">
<path d="M500,250c0,58.266,0,250,0,250s-170.194,0-250-0.012c-62.324,0.012-250,0-250,0s0-174.241,0-249.994
	C0.006,111.931,111.929,0,249.994,0C388.064,0,500,111.93,500,250z"/>
</g></g><g transform="translate(72,342) scale(0.036,0.036)"><g transform="" style="fill: rgb(55, 65, 81);">
<g>
	<path d="M500,500V0H0C0.001,276.142,223.853,500,500,500z"/>
</g>
</g></g><g transform="translate(90,342) scale(0.036,0.036)"><g transform="" style="fill: rgb(55, 65, 81);">
<g>
	<path d="M0,0v500h500C500,223.853,276.142,0,0,0z"/>
</g>
</g></g><g transform="translate(126,342) scale(0.036,0.036)"><g transform="" style="fill: rgb(55, 65, 81);">
<path d="M250,0c58.27,0,250,0,250,0s0,170.182,0,250c0,62.305,0,250,0,250s-174.219,0-250,0
	C111.881,500,0,388.021,0,250C0,111.963,111.881,0,250,0z"/>
</g></g><g transform="translate(144,342) scale(0.18,0.18)"><g transform="" style="fill: rgb(55, 65, 81);">
<rect width="100" height="100"/>
</g></g><g transform="translate(162,342) scale(0.18,0.18)"><g transform="" style="fill: rgb(55, 65, 81);">
<rect width="100" height="100"/>
</g></g><g transform="translate(180,342) scale(0.18,0.18)"><g transform="" style="fill: rgb(55, 65, 81);">
<rect width="100" height="100"/>
</g></g><g transform="translate(234,342) scale(0.18,0.18)"><g transform="" style="fill: rgb(55, 65, 81);">
<rect width="100" height="100"/>
</g></g><g transform="translate(252,342) scale(0.18,0.18)"><g transform="" style="fill: rgb(55, 65, 81);">
<rect width="100" height="100"/>
</g></g><g transform="translate(270,342) scale(0.18,0.18)"><g transform="" style="fill: rgb(55, 65, 81);">
<rect width="100" height="100"/>
</g></g><g transform="translate(288,342) scale(0.18,0.18)"><g transform="" style="fill: rgb(55, 65, 81);">
<rect width="100" height="100"/>
</g></g><g transform="translate(306,342) scale(0.18,0.18)"><g transform="" style="fill: rgb(55, 65, 81);">
<rect width="100" height="100"/>
</g></g><g transform="translate(342,342) scale(0.036,0.036)"><g transform="" style="fill: rgb(55, 65, 81);">
<path d="M250,0c138.077,0,250,111.93,250,250c0,138.077-111.923,250-250,250C111.93,500,0,388.077,0,250C0,111.93,111.93,0,250,0z"
	/>
</g></g><g transform="translate(378,342) scale(0.036,0.036)"><g transform="" style="fill: rgb(55, 65, 81);">
<path d="M500,250c0,58.266,0,250,0,250s-170.194,0-250-0.012c-62.324,0.012-250,0-250,0s0-174.241,0-249.994
	C0.006,111.931,111.929,0,249.994,0C388.064,0,500,111.93,500,250z"/>
</g></g><g transform="translate(468,342) scale(0.18,0.18)"><g transform="" style="fill: rgb(55, 65, 81);">
<rect width="100" height="100"/>
</g></g><g transform="translate(18,360) scale(0.036,0.036)"><g transform="" style="fill: rgb(55, 65, 81);">
<path d="M250,0c58.27,0,250,0,250,0s0,170.182,0,250c0,62.305,0,250,0,250s-174.219,0-250,0
	C111.881,500,0,388.021,0,250C0,111.963,111.881,0,250,0z"/>
</g></g><g transform="translate(36,360) scale(0.036,0.036)"><g transform="" style="fill: rgb(55, 65, 81);">
<g>
	<path d="M500,0H0v500C276.142,500,500,276.142,500,0z"/>
</g>
</g></g><g transform="translate(90,360) scale(0.036,0.036)"><g transform="" style="fill: rgb(55, 65, 81);">
<g>
	<path d="M500,500V0H0C0.001,276.142,223.853,500,500,500z"/>
</g>
</g></g><g transform="translate(108,360) scale(0.036,0.036)"><g transform="" style="fill: rgb(55, 65, 81);">
<path d="M250,500c-58.271,0-250,0-250,0s0-170.207,0-250C0,187.676,0,0,0,0s174.261,0,250,0c138.064,0,250,111.929,250,250
	C500,388.064,388.064,500,250,500z"/>
</g></g><g transform="translate(144,360) scale(0.18,0.18)"><g transform="" style="fill: rgb(55, 65, 81);">
<rect width="100" height="100"/>
</g></g><g transform="translate(162,360) scale(0.18,0.18)"><g transform="" style="fill: rgb(55, 65, 81);">
<rect width="100" height="100"/>
</g></g><g transform="translate(180,360) scale(0.18,0.18)"><g transform="" style="fill: rgb(55, 65, 81);">
<rect width="100" height="100"/>
</g></g><g transform="translate(198,360) scale(0.036,0.036)"><g transform="" style="fill: rgb(55, 65, 81);">
<path d="M250,500c-58.271,0-250,0-250,0s0-170.207,0-250C0,187.676,0,0,0,0s174.261,0,250,0c138.064,0,250,111.929,250,250
	C500,388.064,388.064,500,250,500z"/>
</g></g><g transform="translate(234,360) scale(0.036,0.036)"><g transform="" style="fill: rgb(55, 65, 81);">
<g>
	<path d="M500,500V0H0C0.001,276.142,223.853,500,500,500z"/>
</g>
</g></g><g transform="translate(252,360) scale(0.18,0.18)"><g transform="" style="fill: rgb(55, 65, 81);">
<rect width="100" height="100"/>
</g></g><g transform="translate(270,360) scale(0.18,0.18)"><g transform="" style="fill: rgb(55, 65, 81);">
<rect width="100" height="100"/>
</g></g><g transform="translate(288,360) scale(0.18,0.18)"><g transform="" style="fill: rgb(55, 65, 81);">
<rect width="100" height="100"/>
</g></g><g transform="translate(306,360) scale(0.18,0.18)"><g transform="" style="fill: rgb(55, 65, 81);">
<rect width="100" height="100"/>
</g></g><g transform="translate(324,360) scale(0.036,0.036)"><g transform="" style="fill: rgb(55, 65, 81);">
<g>
	<path d="M0,0v500h500C500,223.853,276.142,0,0,0z"/>
</g>
</g></g><g transform="translate(360,360) scale(0.036,0.036)"><g transform="" style="fill: rgb(55, 65, 81);">
<g>
	<path d="M0,500h500V0C223.861,0.001,0,223.854,0,500z"/>
</g>
</g></g><g transform="translate(378,360) scale(0.18,0.18)"><g transform="" style="fill: rgb(55, 65, 81);">
<rect width="100" height="100"/>
</g></g><g transform="translate(396,360) scale(0.18,0.18)"><g transform="" style="fill: rgb(55, 65, 81);">
<rect width="100" height="100"/>
</g></g><g transform="translate(414,360) scale(0.18,0.18)"><g transform="" style="fill: rgb(55, 65, 81);">
<rect width="100" height="100"/>
</g></g><g transform="translate(432,360) scale(0.18,0.18)"><g transform="" style="fill: rgb(55, 65, 81);">
<rect width="100" height="100"/>
</g></g><g transform="translate(450,360) scale(0.18,0.18)"><g transform="" style="fill: rgb(55, 65, 81);">
<rect width="100" height="100"/>
</g></g><g transform="translate(468,360) scale(0.18,0.18)"><g transform="" style="fill: rgb(55, 65, 81);">
<rect width="100" height="100"/>
</g></g><g transform="translate(144,378) scale(0.18,0.18)"><g transform="" style="fill: rgb(55, 65, 81);">
<rect width="100" height="100"/>
</g></g><g transform="translate(180,378) scale(0.18,0.18)"><g transform="" style="fill: rgb(55, 65, 81);">
<rect width="100" height="100"/>
</g></g><g transform="translate(324,378) scale(0.18,0.18)"><g transform="" style="fill: rgb(55, 65, 81);">
<rect width="100" height="100"/>
</g></g><g transform="translate(360,378) scale(0.18,0.18)"><g transform="" style="fill: rgb(55, 65, 81);">
<rect width="100" height="100"/>
</g></g><g transform="translate(432,378) scale(0.18,0.18)"><g transform="" style="fill: rgb(55, 65, 81);">
<rect width="100" height="100"/>
</g></g><g transform="translate(450,378) scale(0.18,0.18)"><g transform="" style="fill: rgb(55, 65, 81);">
<rect width="100" height="100"/>
</g></g><g transform="translate(468,378) scale(0.18,0.18)"><g transform="" style="fill: rgb(55, 65, 81);">
<rect width="100" height="100"/>
</g></g><g transform="translate(486,378) scale(0.18,0.18)"><g transform="" style="fill: rgb(55, 65, 81);">
<rect width="100" height="100"/>
</g></g><g transform="translate(504,378) scale(0.036,0.036)"><g transform="" style="fill: rgb(55, 65, 81);">
<path d="M250,500c-58.271,0-250,0-250,0s0-170.207,0-250C0,187.676,0,0,0,0s174.261,0,250,0c138.064,0,250,111.929,250,250
	C500,388.064,388.064,500,250,500z"/>
</g></g><g transform="translate(144,396) scale(0.18,0.18)"><g transform="" style="fill: rgb(55, 65, 81);">
<rect width="100" height="100"/>
</g></g><g transform="translate(180,396) scale(0.036,0.036)"><g transform="" style="fill: rgb(55, 65, 81);">
<path d="M0,250C0,191.729,0,0,0,0s170.201,0,250,0c62.324,0,250,0,250,0s0,174.261,0,250c0,138.064-111.936,250-250,250
	C111.929,500,0,388.064,0,250z"/>
</g></g><g transform="translate(252,396) scale(0.036,0.036)"><g transform="" style="fill: rgb(55, 65, 81);">
<path d="M500,250c0,58.266,0,250,0,250s-170.194,0-250-0.012c-62.324,0.012-250,0-250,0s0-174.241,0-249.994
	C0.006,111.931,111.929,0,249.994,0C388.064,0,500,111.93,500,250z"/>
</g></g><g transform="translate(288,396) scale(0.036,0.036)"><g transform="" style="fill: rgb(55, 65, 81);">
<g>
	<path d="M0,500h500V0C223.861,0.001,0,223.854,0,500z"/>
</g>
</g></g><g transform="translate(306,396) scale(0.18,0.18)"><g transform="" style="fill: rgb(55, 65, 81);">
<rect width="100" height="100"/>
</g></g><g transform="translate(324,396) scale(0.18,0.18)"><g transform="" style="fill: rgb(55, 65, 81);">
<rect width="100" height="100"/>
</g></g><g transform="translate(342,396) scale(0.18,0.18)"><g transform="" style="fill: rgb(55, 65, 81);">
<rect width="100" height="100"/>
</g></g><g transform="translate(360,396) scale(0.18,0.18)"><g transform="" style="fill: rgb(55, 65, 81);">
<rect width="100" height="100"/>
</g></g><g transform="translate(396,396) scale(0.036,0.036)"><g transform="" style="fill: rgb(55, 65, 81);">
<path d="M250,0c138.077,0,250,111.93,250,250c0,138.077-111.923,250-250,250C111.93,500,0,388.077,0,250C0,111.93,111.93,0,250,0z"
	/>
</g></g><g transform="translate(432,396) scale(0.18,0.18)"><g transform="" style="fill: rgb(55, 65, 81);">
<rect width="100" height="100"/>
</g></g><g transform="translate(450,396) scale(0.18,0.18)"><g transform="" style="fill: rgb(55, 65, 81);">
<rect width="100" height="100"/>
</g></g><g transform="translate(486,396) scale(0.036,0.036)"><g transform="" style="fill: rgb(55, 65, 81);">
<path d="M0,250C0,191.729,0,0,0,0s170.201,0,250,0c62.324,0,250,0,250,0s0,174.261,0,250c0,138.064-111.936,250-250,250
	C111.929,500,0,388.064,0,250z"/>
</g></g><g transform="translate(144,414) scale(0.036,0.036)"><g transform="" style="fill: rgb(55, 65, 81);">
<g>
	<path d="M500,500V0H0C0.001,276.142,223.853,500,500,500z"/>
</g>
</g></g><g transform="translate(162,414) scale(0.036,0.036)"><g transform="" style="fill: rgb(55, 65, 81);">
<path d="M250,500c-58.271,0-250,0-250,0s0-170.207,0-250C0,187.676,0,0,0,0s174.261,0,250,0c138.064,0,250,111.929,250,250
	C500,388.064,388.064,500,250,500z"/>
</g></g><g transform="translate(234,414) scale(0.036,0.036)"><g transform="" style="fill: rgb(55, 65, 81);">
<path d="M250,0c58.27,0,250,0,250,0s0,170.182,0,250c0,62.305,0,250,0,250s-174.219,0-250,0
	C111.881,500,0,388.021,0,250C0,111.963,111.881,0,250,0z"/>
</g></g><g transform="translate(252,414) scale(0.036,0.036)"><g transform="" style="fill: rgb(55, 65, 81);">
<g>
	<path d="M500,0H0v500C276.142,500,500,276.142,500,0z"/>
</g>
</g></g><g transform="translate(288,414) scale(0.036,0.036)"><g transform="" style="fill: rgb(55, 65, 81);">
<path d="M0,250C0,191.729,0,0,0,0s170.201,0,250,0c62.324,0,250,0,250,0s0,174.261,0,250c0,138.064-111.936,250-250,250
	C111.929,500,0,388.064,0,250z"/>
</g></g><g transform="translate(324,414) scale(0.036,0.036)"><g transform="" style="fill: rgb(55, 65, 81);">
<g>
	<path d="M500,500V0H0C0.001,276.142,223.853,500,500,500z"/>
</g>
</g></g><g transform="translate(342,414) scale(0.18,0.18)"><g transform="" style="fill: rgb(55, 65, 81);">
<rect width="100" height="100"/>
</g></g><g transform="translate(360,414) scale(0.18,0.18)"><g transform="" style="fill: rgb(55, 65, 81);">
<rect width="100" height="100"/>
</g></g><g transform="translate(432,414) scale(0.18,0.18)"><g transform="" style="fill: rgb(55, 65, 81);">
<rect width="100" height="100"/>
</g></g><g transform="translate(450,414) scale(0.036,0.036)"><g transform="" style="fill: rgb(55, 65, 81);">
<g>
	<path d="M500,0H0v500C276.142,500,500,276.142,500,0z"/>
</g>
</g></g><g transform="translate(504,414) scale(0.036,0.036)"><g transform="" style="fill: rgb(55, 65, 81);">
<path d="M250,0c138.077,0,250,111.93,250,250c0,138.077-111.923,250-250,250C111.93,500,0,388.077,0,250C0,111.93,111.93,0,250,0z"
	/>
</g></g><g transform="translate(198,432) scale(0.036,0.036)"><g transform="" style="fill: rgb(55, 65, 81);">
<path d="M500,250c0,58.266,0,250,0,250s-170.194,0-250-0.012c-62.324,0.012-250,0-250,0s0-174.241,0-249.994
	C0.006,111.931,111.929,0,249.994,0C388.064,0,500,111.93,500,250z"/>
</g></g><g transform="translate(270,432) scale(0.036,0.036)"><g transform="" style="fill: rgb(55, 65, 81);">
<path d="M500,250c0,58.266,0,250,0,250s-170.194,0-250-0.012c-62.324,0.012-250,0-250,0s0-174.241,0-249.994
	C0.006,111.931,111.929,0,249.994,0C388.064,0,500,111.93,500,250z"/>
</g></g><g transform="translate(306,432) scale(0.036,0.036)"><g transform="" style="fill: rgb(55, 65, 81);">
<path d="M250,0c138.077,0,250,111.93,250,250c0,138.077-111.923,250-250,250C111.93,500,0,388.077,0,250C0,111.93,111.93,0,250,0z"
	/>
</g></g><g transform="translate(360,432) scale(0.036,0.036)"><g transform="" style="fill: rgb(55, 65, 81);">
<g>
	<path d="M500,500V0H0C0.001,276.142,223.853,500,500,500z"/>
</g>
</g></g><g transform="translate(378,432) scale(0.18,0.18)"><g transform="" style="fill: rgb(55, 65, 81);">
<rect width="100" height="100"/>
</g></g><g transform="translate(396,432) scale(0.18,0.18)"><g transform="" style="fill: rgb(55, 65, 81);">
<rect width="100" height="100"/>
</g></g><g transform="translate(414,432) scale(0.18,0.18)"><g transform="" style="fill: rgb(55, 65, 81);">
<rect width="100" height="100"/>
</g></g><g transform="translate(432,432) scale(0.18,0.18)"><g transform="" style="fill: rgb(55, 65, 81);">
<rect width="100" height="100"/>
</g></g><g transform="translate(468,432) scale(0.036,0.036)"><g transform="" style="fill: rgb(55, 65, 81);">
<path d="M250,0c138.077,0,250,111.93,250,250c0,138.077-111.923,250-250,250C111.93,500,0,388.077,0,250C0,111.93,111.93,0,250,0z"
	/>
</g></g><g transform="translate(144,450) scale(0.036,0.036)"><g transform="" style="fill: rgb(55, 65, 81);">
<g>
	<path d="M0,500h500V0C223.861,0.001,0,223.854,0,500z"/>
</g>
</g></g><g transform="translate(162,450) scale(0.18,0.18)"><g transform="" style="fill: rgb(55, 65, 81);">
<rect width="100" height="100"/>
</g></g><g transform="translate(180,450) scale(0.18,0.18)"><g transform="" style="fill: rgb(55, 65, 81);">
<rect width="100" height="100"/>
</g></g><g transform="translate(198,450) scale(0.18,0.18)"><g transform="" style="fill: rgb(55, 65, 81);">
<rect width="100" height="100"/>
</g></g><g transform="translate(216,450) scale(0.036,0.036)"><g transform="" style="fill: rgb(55, 65, 81);">
<g>
	<path d="M0,0v500h500C500,223.853,276.142,0,0,0z"/>
</g>
</g></g><g transform="translate(270,450) scale(0.036,0.036)"><g transform="" style="fill: rgb(55, 65, 81);">
<g>
	<path d="M500,500V0H0C0.001,276.142,223.853,500,500,500z"/>
</g>
</g></g><g transform="translate(288,450) scale(0.036,0.036)"><g transform="" style="fill: rgb(55, 65, 81);">
<g>
	<path d="M0,0v500h500C500,223.853,276.142,0,0,0z"/>
</g>
</g></g><g transform="translate(342,450) scale(0.036,0.036)"><g transform="" style="fill: rgb(55, 65, 81);">
<path d="M250,0c138.077,0,250,111.93,250,250c0,138.077-111.923,250-250,250C111.93,500,0,388.077,0,250C0,111.93,111.93,0,250,0z"
	/>
</g></g><g transform="translate(378,450) scale(0.036,0.036)"><g transform="" style="fill: rgb(55, 65, 81);">
<path d="M0,250C0,191.729,0,0,0,0s170.201,0,250,0c62.324,0,250,0,250,0s0,174.261,0,250c0,138.064-111.936,250-250,250
	C111.929,500,0,388.064,0,250z"/>
</g></g><g transform="translate(432,450) scale(0.036,0.036)"><g transform="" style="fill: rgb(55, 65, 81);">
<g>
	<path d="M500,500V0H0C0.001,276.142,223.853,500,500,500z"/>
</g>
</g></g><g transform="translate(450,450) scale(0.036,0.036)"><g transform="" style="fill: rgb(55, 65, 81);">
<path d="M250,500c-58.271,0-250,0-250,0s0-170.207,0-250C0,187.676,0,0,0,0s174.261,0,250,0c138.064,0,250,111.929,250,250
	C500,388.064,388.064,500,250,500z"/>
</g></g><g transform="translate(504,450) scale(0.036,0.036)"><g transform="" style="fill: rgb(55, 65, 81);">
<path d="M500,250c0,58.266,0,250,0,250s-170.194,0-250-0.012c-62.324,0.012-250,0-250,0s0-174.241,0-249.994
	C0.006,111.931,111.929,0,249.994,0C388.064,0,500,111.93,500,250z"/>
</g></g><g transform="translate(144,468) scale(0.036,0.036)"><g transform="" style="fill: rgb(55, 65, 81);">
<g>
	<path d="M500,500V0H0C0.001,276.142,223.853,500,500,500z"/>
</g>
</g></g><g transform="translate(162,468) scale(0.18,0.18)"><g transform="" style="fill: rgb(55, 65, 81);">
<rect width="100" height="100"/>
</g></g><g transform="translate(180,468) scale(0.036,0.036)"><g transform="" style="fill: rgb(55, 65, 81);">
<g>
	<path d="M500,0H0v500C276.142,500,500,276.142,500,0z"/>
</g>
</g></g><g transform="translate(216,468) scale(0.18,0.18)"><g transform="" style="fill: rgb(55, 65, 81);">
<rect width="100" height="100"/>
</g></g><g transform="translate(288,468) scale(0.036,0.036)"><g transform="" style="fill: rgb(55, 65, 81);">
<path d="M0,250C0,191.729,0,0,0,0s170.201,0,250,0c62.324,0,250,0,250,0s0,174.261,0,250c0,138.064-111.936,250-250,250
	C111.929,500,0,388.064,0,250z"/>
</g></g><g transform="translate(360,468) scale(0.036,0.036)"><g transform="" style="fill: rgb(55, 65, 81);">
<path d="M500,250c0,58.266,0,250,0,250s-170.194,0-250-0.012c-62.324,0.012-250,0-250,0s0-174.241,0-249.994
	C0.006,111.931,111.929,0,249.994,0C388.064,0,500,111.93,500,250z"/>
</g></g><g transform="translate(414,468) scale(0.036,0.036)"><g transform="" style="fill: rgb(55, 65, 81);">
<path d="M500,250c0,58.266,0,250,0,250s-170.194,0-250-0.012c-62.324,0.012-250,0-250,0s0-174.241,0-249.994
	C0.006,111.931,111.929,0,249.994,0C388.064,0,500,111.93,500,250z"/>
</g></g><g transform="translate(468,468) scale(0.036,0.036)"><g transform="" style="fill: rgb(55, 65, 81);">
<path d="M250,0c138.077,0,250,111.93,250,250c0,138.077-111.923,250-250,250C111.93,500,0,388.077,0,250C0,111.93,111.93,0,250,0z"
	/>
</g></g><g transform="translate(504,468) scale(0.036,0.036)"><g transform="" style="fill: rgb(55, 65, 81);">
<path d="M0,250C0,191.729,0,0,0,0s170.201,0,250,0c62.324,0,250,0,250,0s0,174.261,0,250c0,138.064-111.936,250-250,250
	C111.929,500,0,388.064,0,250z"/>
</g></g><g transform="translate(198,486) scale(0.036,0.036)"><g transform="" style="fill: rgb(55, 65, 81);">
<path d="M250,0c58.27,0,250,0,250,0s0,170.182,0,250c0,62.305,0,250,0,250s-174.219,0-250,0
	C111.881,500,0,388.021,0,250C0,111.963,111.881,0,250,0z"/>
</g></g><g transform="translate(216,486) scale(0.036,0.036)"><g transform="" style="fill: rgb(55, 65, 81);">
<g>
	<path d="M500,0H0v500C276.142,500,500,276.142,500,0z"/>
</g>
</g></g><g transform="translate(252,486) scale(0.036,0.036)"><g transform="" style="fill: rgb(55, 65, 81);">
<path d="M250,0c138.077,0,250,111.93,250,250c0,138.077-111.923,250-250,250C111.93,500,0,388.077,0,250C0,111.93,111.93,0,250,0z"
	/>
</g></g><g transform="translate(360,486) scale(0.18,0.18)"><g transform="" style="fill: rgb(55, 65, 81);">
<rect width="100" height="100"/>
</g></g><g transform="translate(396,486) scale(0.036,0.036)"><g transform="" style="fill: rgb(55, 65, 81);">
<path d="M250,0c58.27,0,250,0,250,0s0,170.182,0,250c0,62.305,0,250,0,250s-174.219,0-250,0
	C111.881,500,0,388.021,0,250C0,111.963,111.881,0,250,0z"/>
</g></g><g transform="translate(414,486) scale(0.18,0.18)"><g transform="" style="fill: rgb(55, 65, 81);">
<rect width="100" height="100"/>
</g></g><g transform="translate(450,486) scale(0.036,0.036)"><g transform="" style="fill: rgb(55, 65, 81);">
<path d="M250,0c138.077,0,250,111.93,250,250c0,138.077-111.923,250-250,250C111.93,500,0,388.077,0,250C0,111.93,111.93,0,250,0z"
	/>
</g></g><g transform="translate(486,486) scale(0.036,0.036)"><g transform="" style="fill: rgb(55, 65, 81);">
<path d="M500,250c0,58.266,0,250,0,250s-170.194,0-250-0.012c-62.324,0.012-250,0-250,0s0-174.241,0-249.994
	C0.006,111.931,111.929,0,249.994,0C388.064,0,500,111.93,500,250z"/>
</g></g><g transform="translate(144,504) scale(0.036,0.036)"><g transform="" style="fill: rgb(55, 65, 81);">
<path d="M250,0c138.077,0,250,111.93,250,250c0,138.077-111.923,250-250,250C111.93,500,0,388.077,0,250C0,111.93,111.93,0,250,0z"
	/>
</g></g><g transform="translate(180,504) scale(0.036,0.036)"><g transform="" style="fill: rgb(55, 65, 81);">
<path d="M250,0c138.077,0,250,111.93,250,250c0,138.077-111.923,250-250,250C111.93,500,0,388.077,0,250C0,111.93,111.93,0,250,0z"
	/>
</g></g><g transform="translate(288,504) scale(0.036,0.036)"><g transform="" style="fill: rgb(55, 65, 81);">
<path d="M250,0c138.077,0,250,111.93,250,250c0,138.077-111.923,250-250,250C111.93,500,0,388.077,0,250C0,111.93,111.93,0,250,0z"
	/>
</g></g><g transform="translate(324,504) scale(0.036,0.036)"><g transform="" style="fill: rgb(55, 65, 81);">
<path d="M250,0c58.27,0,250,0,250,0s0,170.182,0,250c0,62.305,0,250,0,250s-174.219,0-250,0
	C111.881,500,0,388.021,0,250C0,111.963,111.881,0,250,0z"/>
</g></g><g transform="translate(342,504) scale(0.18,0.18)"><g transform="" style="fill: rgb(55, 65, 81);">
<rect width="100" height="100"/>
</g></g><g transform="translate(360,504) scale(0.036,0.036)"><g transform="" style="fill: rgb(55, 65, 81);">
<g>
	<path d="M500,0H0v500C276.142,500,500,276.142,500,0z"/>
</g>
</g></g><g transform="translate(414,504) scale(0.036,0.036)"><g transform="" style="fill: rgb(55, 65, 81);">
<path d="M0,250C0,191.729,0,0,0,0s170.201,0,250,0c62.324,0,250,0,250,0s0,174.261,0,250c0,138.064-111.936,250-250,250
	C111.929,500,0,388.064,0,250z"/>
</g></g><g transform="translate(486,504) scale(0.036,0.036)"><g transform="" style="fill: rgb(55, 65, 81);">
<path d="M0,250C0,191.729,0,0,0,0s170.201,0,250,0c62.324,0,250,0,250,0s0,174.261,0,250c0,138.064-111.936,250-250,250
	C111.929,500,0,388.064,0,250z"/>
</g></g><g transform="translate(0,0) scale(1.26, 1.26)"><g transform="" style="fill: rgb(55, 65, 81);">
<g>
	<path style="fill:none;" d="M65.859,15.008H34.141c-4.082,0-7.869,1.258-10.979,3.398c-2.419,1.665-4.428,3.864-5.848,6.421
		C15.838,27.484,15,30.526,15,33.758v32.471c0,10.344,8.586,18.76,19.145,18.76L50,84.992l15.855-0.004
		C76.414,84.988,85,76.572,85,66.229V33.758C85,23.419,76.414,15.008,65.859,15.008z"/>
	<path d="M65.859,0.008H34.141h0C18.683,0.008,5.587,10.221,1.4,24.18c-0.433,1.444-0.771,2.928-1.006,4.445
		C0.135,30.299,0,32.013,0,33.758v32.471c0,18.619,15.32,33.76,34.141,33.76L50,99.992l15.859-0.004
		c18.82,0,34.141-15.141,34.141-33.76V33.758C100,15.148,84.68,0.008,65.859,0.008z M85,66.229c0,10.344-8.586,18.76-19.145,18.76
		L50,84.992l-15.855-0.004C23.586,84.988,15,76.572,15,66.229V33.758c0-3.231,0.838-6.273,2.313-8.931
		c1.42-2.557,3.429-4.756,5.848-6.421c3.11-2.141,6.897-3.398,10.979-3.398h31.719C76.414,15.008,85,23.419,85,33.758V66.229z"/>
</g>
</g></g><g transform="translate(396,0) scale(1.26, 1.26)"><g transform="" style="fill: rgb(55, 65, 81);">
<g>
	<path style="fill:none;" d="M65.859,15.008H34.141c-4.082,0-7.869,1.258-10.979,3.398c-2.419,1.665-4.428,3.864-5.848,6.421
		C15.838,27.484,15,30.526,15,33.758v32.471c0,10.344,8.586,18.76,19.145,18.76L50,84.992l15.855-0.004
		C76.414,84.988,85,76.572,85,66.229V33.758C85,23.419,76.414,15.008,65.859,15.008z"/>
	<path d="M65.859,0.008H34.141h0C18.683,0.008,5.587,10.221,1.4,24.18c-0.433,1.444-0.771,2.928-1.006,4.445
		C0.135,30.299,0,32.013,0,33.758v32.471c0,18.619,15.32,33.76,34.141,33.76L50,99.992l15.859-0.004
		c18.82,0,34.141-15.141,34.141-33.76V33.758C100,15.148,84.68,0.008,65.859,0.008z M85,66.229c0,10.344-8.586,18.76-19.145,18.76
		L50,84.992l-15.855-0.004C23.586,84.988,15,76.572,15,66.229V33.758c0-3.231,0.838-6.273,2.313-8.931
		c1.42-2.557,3.429-4.756,5.848-6.421c3.11-2.141,6.897-3.398,10.979-3.398h31.719C76.414,15.008,85,23.419,85,33.758V66.229z"/>
</g>
</g></g><g transform="translate(0,396) scale(1.26, 1.26)"><g transform="" style="fill: rgb(55, 65, 81);">
<g>
	<path style="fill:none;" d="M65.859,15.008H34.141c-4.082,0-7.869,1.258-10.979,3.398c-2.419,1.665-4.428,3.864-5.848,6.421
		C15.838,27.484,15,30.526,15,33.758v32.471c0,10.344,8.586,18.76,19.145,18.76L50,84.992l15.855-0.004
		C76.414,84.988,85,76.572,85,66.229V33.758C85,23.419,76.414,15.008,65.859,15.008z"/>
	<path d="M65.859,0.008H34.141h0C18.683,0.008,5.587,10.221,1.4,24.18c-0.433,1.444-0.771,2.928-1.006,4.445
		C0.135,30.299,0,32.013,0,33.758v32.471c0,18.619,15.32,33.76,34.141,33.76L50,99.992l15.859-0.004
		c18.82,0,34.141-15.141,34.141-33.76V33.758C100,15.148,84.68,0.008,65.859,0.008z M85,66.229c0,10.344-8.586,18.76-19.145,18.76
		L50,84.992l-15.855-0.004C23.586,84.988,15,76.572,15,66.229V33.758c0-3.231,0.838-6.273,2.313-8.931
		c1.42-2.557,3.429-4.756,5.848-6.421c3.11-2.141,6.897-3.398,10.979-3.398h31.719C76.414,15.008,85,23.419,85,33.758V66.229z"/>
</g>
</g></g><g transform="translate(36,36) scale(0.54, 0.54)"><g transform="" style="fill: rgb(55, 65, 81);">
<g>
	<g id="XMLID_1_">
		<g>
			<path d="M27.351,100c-15.09,0-27.365-12.032-27.365-26.808V26.794c0-4.616,1.2-8.96,3.301-12.761
				c2.029-3.658,4.901-6.802,8.36-9.174C16.09,1.801,21.506,0,27.336,0h45.327c15.076,0,27.351,12.018,27.351,26.793v46.398
				c0,14.775-12.274,26.808-27.351,26.808H50H27.351z"/>
		</g>
		<g>
		</g>
	</g>
</g>
</g></g><g transform="translate(432,36) scale(0.54, 0.54)"><g transform="" style="fill: rgb(55, 65, 81);">
<g>
	<g id="XMLID_1_">
		<g>
			<path d="M27.351,100c-15.09,0-27.365-12.032-27.365-26.808V26.794c0-4.616,1.2-8.96,3.301-12.761
				c2.029-3.658,4.901-6.802,8.36-9.174C16.09,1.801,21.506,0,27.336,0h45.327c15.076,0,27.351,12.018,27.351,26.793v46.398
				c0,14.775-12.274,26.808-27.351,26.808H50H27.351z"/>
		</g>
		<g>
		</g>
	</g>
</g>
</g></g><g transform="translate(36,432) scale(0.54, 0.54)"><g transform="" style="fill: rgb(55, 65, 81);">
<g>
	<g id="XMLID_1_">
		<g>
			<path d="M27.351,100c-15.09,0-27.365-12.032-27.365-26.808V26.794c0-4.616,1.2-8.96,3.301-12.761
				c2.029-3.658,4.901-6.802,8.36-9.174C16.09,1.801,21.506,0,27.336,0h45.327c15.076,0,27.351,12.018,27.351,26.793v46.398
				c0,14.775-12.274,26.808-27.351,26.808H50H27.351z"/>
		</g>
		<g>
		</g>
	</g>
</g>
</g></g></g></svg>